<svg width="50" height="36" viewBox="0 0 50 36" fill="none" xmlns="http://www.w3.org/2000/svg">
<path d="M38.7097 14.9032V13.1758C40.0968 12.8153 41.129 11.5629 41.129 10.0645C41.129 8.28547 39.6822 6.8387 37.9032 6.8387C37.0137 6.8387 36.2903 6.11531 36.2903 5.22579C36.2903 4.33628 37.0137 3.61289 37.9032 3.61289C38.7927 3.61289 39.5161 4.33628 39.5161 5.22579H41.129C41.129 3.72741 40.0968 2.47499 38.7097 2.1145V0.387085H37.0968V2.1145C35.7097 2.47499 34.6774 3.72741 34.6774 5.22579C34.6774 7.00483 36.1242 8.4516 37.9032 8.4516C38.7927 8.4516 39.5161 9.17499 39.5161 10.0645C39.5161 10.954 38.7927 11.6774 37.9032 11.6774C37.0137 11.6774 36.2903 10.954 36.2903 10.0645H34.6774C34.6774 11.5629 35.7097 12.8153 37.0968 13.1758V14.9032H38.7097Z" fill="white"/>
<path d="M29.0322 9.25806H27.4193V10.871H29.0322V9.25806Z" fill="white"/>
<path d="M29.0322 10.871L30.6452 10.871V12.4839H29.0323L29.0322 10.871Z" fill="white"/>
<path fill-rule="evenodd" clip-rule="evenodd" d="M33.0645 14.0967C33.0645 14.5418 32.7032 14.9031 32.2581 14.9031H25.8065C25.3613 14.9031 25 14.5418 25 14.0967V7.64507C25 7.19991 25.3613 6.83862 25.8065 6.83862H32.2581C32.7032 6.83862 33.0645 7.19991 33.0645 7.64507V14.0967ZM31.4516 8.45153H26.6129V13.2902H31.4516V8.45153Z" fill="white"/>
<path d="M31.4516 18.9355H33.0645V20.5483H34.6774V22.1612H33.0645L33.0645 20.5483L31.4516 20.5485V18.9355Z" fill="white"/>
<path fill-rule="evenodd" clip-rule="evenodd" d="M29.0323 17.3226C29.0323 16.8774 29.3935 16.5161 29.8387 16.5161H36.2903C36.7355 16.5161 37.0968 16.8774 37.0968 17.3226V23.7742C37.0968 24.2193 36.7355 24.5806 36.2903 24.5806H29.8387C29.3935 24.5806 29.0323 24.2193 29.0323 23.7742V17.3226ZM30.6452 18.129V22.9677H35.4839V18.129H30.6452Z" fill="white"/>
<path d="M44.3549 10.0645C44.3549 10.954 45.0783 11.6774 45.9678 11.6774C46.8573 11.6774 47.5807 10.954 47.5807 10.0645C47.5807 9.17499 46.8573 8.4516 45.9678 8.4516C44.1887 8.4516 42.742 7.00483 42.742 5.22579C42.742 3.72741 43.7742 2.47499 45.1613 2.1145V0.387085H46.7742V2.1145C48.1613 2.47499 49.1936 3.72741 49.1936 5.22579H47.5807C47.5807 4.33628 46.8573 3.61289 45.9678 3.61289C45.0783 3.61289 44.3549 4.33628 44.3549 5.22579C44.3549 6.11531 45.0783 6.8387 45.9678 6.8387C47.7468 6.8387 49.1936 8.28547 49.1936 10.0645C49.1936 11.5629 48.1613 12.8153 46.7742 13.1758V14.9032H45.1613V13.1758C43.7742 12.8153 42.742 11.5629 42.742 10.0645H44.3549Z" fill="white"/>
<path fill-rule="evenodd" clip-rule="evenodd" d="M12.9032 9.25806C5.78871 9.25806 0 15.0468 0 22.1613C0 29.2758 5.78871 35.0645 12.9032 35.0645C20.0177 35.0645 25.8064 29.2758 25.8064 22.1613C25.8064 15.0468 20.0177 9.25806 12.9032 9.25806ZM23.9492 24.4903C21.6895 21.4637 18.4806 19.2024 14.8605 18.1161C14.5363 18.0185 14.2452 17.8629 13.9887 17.6685C15.6314 17.1395 17.3508 16.8185 19.1081 16.7306L22.6887 16.5516C23.6403 18.2064 24.1935 20.1185 24.1935 22.1613C24.1935 22.9597 24.1073 23.7387 23.9492 24.4903ZM22.2121 28.5371C16.8435 27.6201 12.1234 24.4774 9.2 19.9411C10.1903 19.3024 11.2371 18.7548 12.3258 18.296C12.8573 18.9234 13.5605 19.4105 14.3976 19.6613C17.7943 20.6806 20.8016 22.8314 22.8637 25.7177L23.3581 26.4097C23.05 27.1621 22.6669 27.8758 22.2121 28.5371ZM21.6177 14.9911L19.0266 15.121C16.9605 15.2242 14.9452 15.6355 13.029 16.3008C12.9492 16.0419 12.9032 15.7693 12.9032 15.4863C12.9032 14.4395 13.4847 13.4984 14.421 13.0298L17.1016 11.6895C18.871 12.4016 20.4226 13.5419 21.6177 14.9911ZM14.7903 11.0419L13.7 11.5871C12.2137 12.3306 11.2903 13.825 11.2903 15.4863C11.2903 15.975 11.3702 16.4468 11.5185 16.8887C10.4306 17.3589 9.38145 17.9097 8.38468 18.5476C8.35535 18.4924 8.32518 18.4378 8.295 18.3831C8.24724 18.2967 8.19928 18.2098 8.15484 18.121L5.79435 13.4C7.7379 11.821 10.2105 10.871 12.9032 10.871C13.5476 10.871 14.175 10.9379 14.7903 11.0419ZM4.57419 14.5653L6.71209 18.8419C6.79094 18.999 6.87537 19.1523 6.95974 19.3054C6.991 19.3621 7.02227 19.4189 7.05322 19.4758C6.31209 20.0306 5.60645 20.6331 4.94032 21.2782C4.06855 20.5379 3.01451 20.0218 1.85726 19.8306C2.27984 17.8274 3.24193 16.025 4.57419 14.5653ZM1.6129 22.1613C1.6129 21.9627 1.62666 21.7678 1.64046 21.5723C1.64369 21.5266 1.64694 21.4805 1.65 21.4347C2.46129 21.579 3.20403 21.9347 3.82742 22.4435C3.15 23.2048 2.52419 24.0153 1.95645 24.8726C1.74032 24.0024 1.6129 23.0976 1.6129 22.1613ZM2.6379 26.8355C3.28951 25.7016 4.04516 24.6451 4.89193 23.6726C5.07258 23.9726 5.23387 24.2863 5.34839 24.629C6.14193 27.0089 7.38145 29.1726 9.03387 31.0605L10.9702 33.2734C7.25484 32.629 4.1621 30.1677 2.6379 26.8355ZM13.254 33.4339L10.2476 29.9984C8.73709 28.2726 7.60403 26.2943 6.87903 24.1185C6.67822 23.5161 6.38548 22.9653 6.03387 22.4645C6.61774 21.8968 7.23467 21.3661 7.88064 20.8734C10.8871 25.504 15.6242 28.7903 21.0468 29.9613C19.0661 32.0274 16.3129 33.3395 13.254 33.4339Z" fill="#D97EF4"/>
<path d="M50 33.4517H38.7097V35.0646H50V33.4517Z" fill="#D97EF4"/>
<path d="M25.8064 33.4517H37.0967V35.0646H25.8064V33.4517Z" fill="#D97EF4"/>
<path d="M50 31.0322H38.7097V32.6451H50V31.0322Z" fill="#D97EF4"/>
<path d="M25.8064 31.0322H37.0967V32.6451H25.8064V31.0322Z" fill="#D97EF4"/>
<path d="M50 28.6129H38.7097V30.2258H50V28.6129Z" fill="#D97EF4"/>
<path d="M25.8064 28.6129H37.0967V30.2258H25.8064V28.6129Z" fill="#D97EF4"/>
<path d="M50 26.1935H38.7097V27.8064H50V26.1935Z" fill="#D97EF4"/>
<path d="M38.7097 23.7742H50V25.3871H38.7097V23.7742Z" fill="#D97EF4"/>
<path d="M50 21.3549H38.7097V22.9678H50V21.3549Z" fill="#D97EF4"/>
<path d="M38.7097 18.9355H50V20.5484H38.7097V18.9355Z" fill="#D97EF4"/>
<path d="M50 16.5162H38.7097V18.1291H50V16.5162Z" fill="#D97EF4"/>
<path d="M25.8064 26.1935H37.0967V27.8064H25.8064V26.1935Z" fill="#D97EF4"/>
</svg>
