<svg width="11" height="11" viewBox="0 0 11 11" fill="none" xmlns="http://www.w3.org/2000/svg">
<path d="M9.60996 10.4286C9.39974 10.4286 9.18952 10.3484 9.02914 10.1879L0.814928 1.97365C0.493982 1.65271 0.493982 1.13295 0.814928 0.812177C1.1357 0.491406 1.65563 0.491231 1.9764 0.812177L10.1906 9.02638C10.5116 9.34733 10.5116 9.86709 10.1906 10.1879C10.0302 10.3484 9.82018 10.4286 9.60996 10.4286Z" fill="#222222"/>
<path d="M1.39558 10.4286C1.18536 10.4286 0.975313 10.3484 0.814928 10.1879C0.493982 9.8671 0.493982 9.34716 0.814928 9.02639L9.02914 0.812181C9.35008 0.491236 9.86984 0.491236 10.1906 0.812181C10.5114 1.13295 10.5116 1.65289 10.1906 1.97366L1.9764 10.1879C1.81602 10.3484 1.6058 10.4286 1.39558 10.4286Z" fill="#222222"/>
</svg>
