<svg width="54" height="54" viewBox="0 0 54 54" fill="none" xmlns="http://www.w3.org/2000/svg">
<g filter="url(#filter0_d)">
<path d="M46.0909 27.1762V21.2731C46.0909 19.2715 44.5383 17.6436 42.5766 17.4858L37.0946 7.91063C36.5865 7.02507 35.7662 6.39213 34.7846 6.1293C33.8077 5.86827 32.7861 6.00536 31.9117 6.51428L13.1188 17.455H9.81821C7.71245 17.455 6 19.1673 6 21.2731V44.1818C6 46.2876 7.71236 48 9.81821 48H42.2727C44.3785 48 46.0909 46.2877 46.0909 44.1818V38.2788C47.1996 37.8835 48 36.8339 48 35.5911V29.8639C48 28.6211 47.1996 27.5715 46.0909 27.1762ZM40.3583 17.455H32.0385L38.2784 13.8222L40.3583 17.455ZM37.3299 12.1655L28.2442 17.455H24.4756L36.3876 10.5197L37.3299 12.1655ZM32.8727 8.16415C33.3043 7.91153 33.8086 7.84441 34.2905 7.9731C34.7781 8.10357 35.1845 8.41865 35.4372 8.85956L35.4391 8.86305L20.6816 17.455H16.9131L32.8727 8.16415ZM44.1818 44.1818C44.1818 45.2342 43.3251 46.0909 42.2727 46.0909H9.81821C8.76582 46.0909 7.90915 45.2342 7.90915 44.1818V21.2731C7.90915 20.2208 8.76582 19.3641 9.81821 19.3641H42.2727C43.3251 19.3641 44.1818 20.2208 44.1818 21.2731V27.0003H41.175C38.0168 27.0003 35.4477 29.5693 35.4477 32.7275C35.4477 35.8857 38.0168 38.4547 41.175 38.4547H44.1818V44.1818ZM46.0909 35.5911C46.0909 36.1177 45.6631 36.5456 45.1364 36.5456H41.175C39.0692 36.5456 37.3568 34.8333 37.3568 32.7275C37.3568 30.6218 39.0692 28.9093 41.175 28.9093H45.1364C45.663 28.9093 46.0909 29.3372 46.0909 29.8639V35.5911Z" fill="#D97EF4"/>
</g>
<path d="M29.2292 34.3623C29.3892 34.5469 29.4691 34.8012 29.4691 35.1252C29.4691 35.4164 29.3892 35.6461 29.2292 35.8143C29.0692 35.9783 28.8498 36.0604 28.5709 36.0604C28.1894 36.0604 27.8941 35.9394 27.685 35.6974C27.4799 35.4513 27.3773 35.0944 27.3773 34.6269H25.304C25.304 35.4759 25.5419 36.1608 26.0177 36.6817C26.4976 37.1985 27.1846 37.5041 28.0787 37.5984V38.8412H29.0569V37.6046C29.8239 37.5308 30.4289 37.2724 30.8719 36.8294C31.3189 36.3864 31.5425 35.8143 31.5425 35.1129C31.5425 34.6986 31.4727 34.3438 31.3333 34.0485C31.1938 33.7532 31.0011 33.4948 30.755 33.2733C30.5089 33.0519 30.2156 32.855 29.8752 32.6827C29.5389 32.5063 29.18 32.3382 28.7985 32.1782C28.4171 32.0142 28.1402 31.8439 27.968 31.6676C27.7957 31.4871 27.7096 31.2451 27.7096 30.9416C27.7096 30.6422 27.7834 30.4084 27.931 30.2402C28.0828 30.068 28.294 29.9818 28.5647 29.9818C28.8683 29.9818 29.102 30.0967 29.2661 30.3264C29.4302 30.5561 29.5122 30.8842 29.5122 31.3107H31.5917C31.5917 30.5314 31.3764 29.8896 30.9457 29.3851C30.5191 28.8765 29.9306 28.5668 29.18 28.4561V27.1333H28.2018V28.4314C27.4225 28.5053 26.799 28.7678 26.3314 29.2189C25.8639 29.666 25.6301 30.2361 25.6301 30.9293C25.6301 31.3436 25.6957 31.6963 25.8269 31.9875C25.9582 32.2787 26.1469 32.5351 26.393 32.7565C26.6391 32.978 26.9323 33.1729 27.2727 33.341C27.6132 33.5092 27.9844 33.6753 28.3863 33.8394C28.7883 34.0034 29.0692 34.1777 29.2292 34.3623Z" fill="white"/>
<path fill-rule="evenodd" clip-rule="evenodd" d="M24.2643 33.8394C24.2643 35.0493 23.9915 35.9824 23.446 36.6387C22.9046 37.2949 22.1396 37.623 21.1512 37.623C20.1545 37.623 19.3834 37.2929 18.8379 36.6325C18.2924 35.9722 18.0196 35.0411 18.0196 33.8394V32.2028C18.0196 30.9929 18.2903 30.0598 18.8317 29.4035C19.3772 28.7473 20.1463 28.4191 21.1389 28.4191C22.1314 28.4191 22.9005 28.7493 23.446 29.4097C23.9915 30.07 24.2643 31.0031 24.2643 32.209V33.8394ZM22.1909 31.9383C22.1909 31.2943 22.1068 30.8145 21.9387 30.4986C21.7705 30.1787 21.5039 30.0188 21.1389 30.0188C20.782 30.0188 20.5216 30.1664 20.3575 30.4617C20.1976 30.757 20.1114 31.2041 20.0991 31.8029V34.0916C20.0991 34.7602 20.1832 35.2503 20.3514 35.562C20.5195 35.8696 20.7861 36.0234 21.1512 36.0234C21.5039 36.0234 21.7643 35.8737 21.9325 35.5743C22.1007 35.2708 22.1868 34.7971 22.1909 34.1531V31.9383Z" fill="white"/>
<path d="M15.3434 37.5H13.2639V30.8801L11.2213 31.4769V29.9019L15.1526 28.5422H15.3434V37.5Z" fill="white"/>
<path d="M39.6 32.5999C39.6 31.3137 40.6471 30.2666 41.9333 30.2666C43.2197 30.2666 44.2668 31.3137 44.2667 32.5999C44.2667 33.8862 43.2196 34.9333 41.9333 34.9333C40.6471 34.9333 39.6 33.8862 39.6 32.5999Z" fill="white"/>
<defs>
<filter id="filter0_d" x="0" y="0" width="54" height="54" filterUnits="userSpaceOnUse" color-interpolation-filters="sRGB">
<feFlood flood-opacity="0" result="BackgroundImageFix"/>
<feColorMatrix in="SourceAlpha" type="matrix" values="0 0 0 0 0 0 0 0 0 0 0 0 0 0 0 0 0 0 127 0"/>
<feOffset/>
<feGaussianBlur stdDeviation="3"/>
<feColorMatrix type="matrix" values="0 0 0 0 0.85098 0 0 0 0 0.494118 0 0 0 0 0.956863 0 0 0 1 0"/>
<feBlend mode="normal" in2="BackgroundImageFix" result="effect1_dropShadow"/>
<feBlend mode="normal" in="SourceGraphic" in2="effect1_dropShadow" result="shape"/>
</filter>
</defs>
</svg>
