<svg width="20" height="20" viewBox="0 0 20 20" fill="none" xmlns="http://www.w3.org/2000/svg">
<path d="M10 20C15.5228 20 20 15.5228 20 10C20 4.47715 15.5228 0 10 0C4.47715 0 0 4.47715 0 10C0 15.5228 4.47715 20 10 20Z" fill="#F0F0F0"/>
<path d="M2.06791 3.91138C1.2824 4.93337 0.690098 6.1113 0.345215 7.39095H5.54748L2.06791 3.91138Z" fill="#0052B4"/>
<path d="M19.6563 7.39092C19.3114 6.11131 18.7191 4.93337 17.9336 3.91138L14.4541 7.39092H19.6563Z" fill="#0052B4"/>
<path d="M0.345215 12.6084C0.690137 13.888 1.28244 15.0659 2.06791 16.0879L5.54736 12.6084H0.345215Z" fill="#0052B4"/>
<path d="M16.0892 2.06697C15.0672 1.28146 13.8893 0.68916 12.6096 0.344238V5.54646L16.0892 2.06697Z" fill="#0052B4"/>
<path d="M3.91211 17.9326C4.9341 18.7181 6.11203 19.3104 7.39164 19.6553V14.4531L3.91211 17.9326Z" fill="#0052B4"/>
<path d="M7.3916 0.344238C6.11199 0.68916 4.93406 1.28146 3.91211 2.06693L7.3916 5.54643V0.344238Z" fill="#0052B4"/>
<path d="M12.6096 19.6553C13.8892 19.3104 15.0672 18.7181 16.0891 17.9326L12.6096 14.4531V19.6553Z" fill="#0052B4"/>
<path d="M14.4541 12.6084L17.9336 16.0879C18.7191 15.066 19.3114 13.888 19.6563 12.6084H14.4541Z" fill="#0052B4"/>
<path d="M19.9154 8.69566H11.3044H11.3044V0.0846484C10.8774 0.0290625 10.4421 0 10 0C9.55785 0 9.12262 0.0290625 8.69566 0.0846484V8.69559V8.69563H0.0846484C0.0290625 9.12262 0 9.55793 0 10C0 10.4421 0.0290625 10.8774 0.0846484 11.3043H8.69559H8.69563V19.9154C9.12262 19.9709 9.55785 20 10 20C10.4421 20 10.8774 19.971 11.3043 19.9154V11.3044V11.3044H19.9154C19.9709 10.8774 20 10.4421 20 10C20 9.55793 19.9709 9.12262 19.9154 8.69566Z" fill="#D80027"/>
<path d="M12.6086 12.6089L17.071 17.0713C17.2762 16.8661 17.472 16.6516 17.6588 16.4293L13.8384 12.6089H12.6086V12.6089Z" fill="#D80027"/>
<path d="M7.39084 12.6089H7.39076L2.92847 17.0712C3.13362 17.2764 3.34811 17.4722 3.57046 17.659L7.39084 13.8385V12.6089Z" fill="#D80027"/>
<path d="M7.39147 7.39167V7.39159L2.92912 2.9292C2.72389 3.13436 2.52811 3.34885 2.34131 3.57119L6.16174 7.39163H7.39147V7.39167Z" fill="#D80027"/>
<path d="M12.6086 7.39126L17.071 2.92884C16.8659 2.7236 16.6514 2.52782 16.429 2.34106L12.6086 6.16149V7.39126Z" fill="#D80027"/>
</svg>
