<svg width="18" height="18" viewBox="0 0 18 18" fill="none" xmlns="http://www.w3.org/2000/svg">
<g clip-path="url(#clip0)">
<path d="M15.8906 0H2.10938C0.946266 0 0 0.946266 0 2.10938V4.92188H1.40625V2.10938C1.40625 1.72167 1.72167 1.40625 2.10938 1.40625H15.8906C16.2783 1.40625 16.5938 1.72167 16.5938 2.10938V15.8906C16.5938 16.2783 16.2783 16.5938 15.8906 16.5938H2.10938C1.72167 16.5938 1.40625 16.2783 1.40625 15.8906V13.0781H0V15.8906C0 17.0537 0.946266 18 2.10938 18H15.8906C17.0537 18 18 17.0537 18 15.8906V2.10938C18 0.946266 17.0537 0 15.8906 0Z" fill="white"/>
<path d="M8.49863 4.49878L7.47428 5.52313L10.2267 8.2756H-0.193359V9.72426H10.2267L7.47428 12.4767L8.49863 13.5011L12.9998 8.99993L8.49863 4.49878Z" fill="white"/>
</g>
<defs>
<clipPath id="clip0">
<rect width="18" height="18" fill="white"/>
</clipPath>
</defs>
</svg>
