<svg width="56" height="47" viewBox="0 0 56 47" fill="none" xmlns="http://www.w3.org/2000/svg">
<path d="M9.75734 31H45.2429C45.6602 31 46.0001 31.2566 46.0001 31.5718V35.4281C46.0001 35.7433 45.6603 36 45.2429 36H9.75734C9.34 36 9.00012 35.7434 9.00012 35.4281V31.5718C9.00022 31.2566 9.34 31 9.75734 31ZM10.5146 34.8563H44.4858V32.1436H10.5146V34.8563Z" fill="white"/>
<path d="M24.1098 17.8043H12.3527C11.9349 17.8043 11.5946 17.465 11.5946 17.0472C11.5946 16.6294 11.9348 16.29 12.3527 16.29H24.1098C24.5276 16.29 24.8679 16.6294 24.8679 17.0472C24.8679 17.465 24.5277 17.8043 24.1098 17.8043Z" fill="white"/>
<path d="M24.1098 21.7425H12.3527C11.9349 21.7425 11.5946 21.4032 11.5946 20.9854C11.5946 20.5676 11.9348 20.2283 12.3527 20.2283H24.1098C24.5276 20.2283 24.8679 20.5676 24.8679 20.9854C24.8679 21.4032 24.5277 21.7425 24.1098 21.7425Z" fill="white"/>
<path d="M24.1098 25.6806H16.7826C16.3648 25.6806 16.0245 25.3413 16.0245 24.9235C16.0245 24.5057 16.3647 24.1664 16.7826 24.1664H24.1098C24.5276 24.1664 24.8679 24.5057 24.8679 24.9235C24.8679 25.3413 24.5277 25.6806 24.1098 25.6806Z" fill="white"/>
<g filter="url(#filter0_d)">
<path d="M8.57361 9.57862H19.4322V6.75713C19.4322 6.33931 19.7724 6 20.1903 6H34.6652C35.083 6 35.4233 6.33931 35.4233 6.75713V9.57852H47.4263C48.8445 9.57852 50 10.7322 50 12.1512V37.4876C50 38.9058 48.8444 40.0613 47.4263 40.0613H8.57361C7.15546 40.0613 5.99995 38.9057 5.99995 37.4876V12.1512C5.99995 10.7323 7.15556 9.57862 8.57361 9.57862ZM33.9072 7.51426H20.9483V9.57852H33.9072V7.51426ZM7.51604 37.4877C7.51604 38.072 7.98936 38.5453 8.57361 38.5453H47.4263C48.0106 38.5453 48.4839 38.072 48.4839 37.4877V12.1513C48.4839 11.568 48.0106 11.0928 47.4263 11.0928H34.6652H20.1902H8.57361C7.98936 11.0928 7.51604 11.5679 7.51604 12.1513V37.4877Z" fill="#D97EF4"/>
<path d="M38.9472 21.3986C37.5384 21.3986 36.3921 20.2532 36.3921 18.8444C36.3921 17.4356 37.5383 16.2902 38.9472 16.2902C40.3562 16.2902 41.5024 17.4356 41.5024 18.8444C41.5024 20.2532 40.3562 21.3986 38.9472 21.3986ZM38.9472 17.8043C38.3741 17.8043 37.9081 18.2712 37.9081 18.8443C37.9081 19.4175 38.3741 19.8843 38.9472 19.8843C39.5204 19.8843 39.9864 19.4174 39.9864 18.8443C39.9864 18.2712 39.5204 17.8043 38.9472 17.8043Z" fill="#D97EF4"/>
<path d="M43.7828 27.1226C43.7494 27.1595 43.7094 27.1864 43.6693 27.2162C42.3295 28.1584 40.706 28.722 38.9473 28.722C37.1978 28.722 35.5809 28.1658 34.2451 27.2325C34.1934 27.197 34.144 27.1618 34.1025 27.1147C32.0533 25.614 30.7049 23.2093 30.7049 20.4806C30.7049 15.936 34.4027 12.2391 38.9473 12.2391C43.4919 12.2391 47.1898 15.936 47.1898 20.4806C47.1898 23.2137 45.8375 25.6225 43.7828 27.1226ZM42.4677 26.1865V25.3774C42.4677 24.6933 41.9129 24.1367 41.2289 24.1367H36.6659C35.9836 24.1367 35.4271 24.6923 35.4252 25.3728L35.4241 26.1847C36.4517 26.8222 37.6518 27.2078 38.9473 27.2078C40.2417 27.2078 41.4406 26.8228 42.4677 26.1865ZM38.9473 13.7534C35.2385 13.7534 32.221 16.7717 32.221 20.4806C32.221 22.1999 32.8886 23.7538 33.9536 24.9444C34.1644 23.6323 35.2969 22.6225 36.6658 22.6225H41.2288C42.5991 22.6225 43.7307 23.6325 43.94 24.9457C45.0057 23.755 45.6736 22.2003 45.6736 20.4805C45.6737 16.7717 42.6562 13.7534 38.9473 13.7534Z" fill="#D97EF4"/>
</g>
<defs>
<filter id="filter0_d" x="-6.10352e-05" y="0" width="56" height="46.0613" filterUnits="userSpaceOnUse" color-interpolation-filters="sRGB">
<feFlood flood-opacity="0" result="BackgroundImageFix"/>
<feColorMatrix in="SourceAlpha" type="matrix" values="0 0 0 0 0 0 0 0 0 0 0 0 0 0 0 0 0 0 127 0"/>
<feOffset/>
<feGaussianBlur stdDeviation="3"/>
<feColorMatrix type="matrix" values="0 0 0 0 0.85098 0 0 0 0 0.494118 0 0 0 0 0.956863 0 0 0 1 0"/>
<feBlend mode="normal" in2="BackgroundImageFix" result="effect1_dropShadow"/>
<feBlend mode="normal" in="SourceGraphic" in2="effect1_dropShadow" result="shape"/>
</filter>
</defs>
</svg>
