<svg width="57" height="56" viewBox="0 0 57 56" fill="none" xmlns="http://www.w3.org/2000/svg">
<path fill-rule="evenodd" clip-rule="evenodd" d="M28.0808 26.3284C28.2745 26.1366 28.5378 26.0181 28.8311 26.0181C29.4216 26.0181 29.8993 26.4976 29.9012 27.0863C29.9012 27.6768 29.4235 28.1544 28.833 28.1544C28.534 28.1544 28.2651 28.0303 28.0714 27.831L26.2303 27.7689C25.999 28.3989 25.5063 28.8841 24.8744 29.1097V31.0411C25.07 31.2348 25.1904 31.5018 25.1904 31.799C25.1904 32.3895 24.7127 32.8671 24.1222 32.8671C23.5317 32.8671 23.054 32.3895 23.054 31.799C23.054 31.5018 23.1744 31.2348 23.37 31.0411V29.1116C22.7588 28.8935 22.2679 28.4384 22.0272 27.8404H20.1673C19.9736 28.0359 19.7066 28.1563 19.4095 28.1563C18.819 28.1563 18.3413 27.6786 18.3413 27.0881C18.3413 26.4976 18.819 26.02 19.4095 26.02C19.7047 26.02 19.9718 26.1403 20.1655 26.334H21.9896C22.2021 25.657 22.7024 25.1248 23.3681 24.886V23.1333C23.1744 22.9396 23.0521 22.6725 23.0521 22.3754C23.0521 21.7849 23.5298 21.3073 24.1203 21.3073C24.7108 21.3073 25.1885 21.7849 25.1885 22.3754C25.1885 22.6725 25.0681 22.9396 24.8725 23.1333V24.886C25.5157 25.1154 26.0122 25.6194 26.236 26.2663L28.0808 26.3284ZM23.3606 26.9979C23.3606 27.4154 23.7009 27.7557 24.1203 27.7557C24.5397 27.7557 24.8801 27.4154 24.8801 26.9979C24.8801 26.5804 24.5378 26.24 24.1203 26.24C23.7028 26.24 23.3606 26.5804 23.3606 26.9979Z" fill="white"/>
<path d="M20.3611 18.994C20.8857 18.994 21.3126 18.569 21.3126 18.0425C21.3126 17.5159 20.8857 17.0928 20.3611 17.0928C19.8364 17.0928 19.4095 17.5178 19.4095 18.0425C19.4095 18.5671 19.8345 18.994 20.3611 18.994Z" fill="white"/>
<path fill-rule="evenodd" clip-rule="evenodd" d="M11.3287 26.9357C11.3287 19.8817 17.0682 14.1422 24.1204 14.1422C31.1744 14.1422 36.912 19.8817 36.912 26.9357C36.912 33.9898 31.1744 39.7293 24.1204 39.7293C17.0664 39.7293 11.3287 33.9898 11.3287 26.9357ZM17.561 26.9489C17.561 28.7844 18.2229 30.4054 19.4265 31.6409C21.9032 34.2154 26.3395 34.2117 28.8087 31.6447C30.016 30.4054 30.6779 28.7844 30.6761 27.0787V26.9357C30.646 25.2113 29.9389 23.5921 28.6864 22.3904C27.4471 21.1831 25.8261 20.5211 24.1185 20.5211C22.411 20.5211 20.7899 21.1812 19.5544 22.3848C18.3 23.5921 17.5929 25.2113 17.561 26.9489ZM24.8726 19.0881C26.4448 19.2367 27.9154 19.8403 29.1509 20.8408L31.5392 18.4506C29.732 16.8672 27.417 15.8554 24.8726 15.6862V19.0881ZM19.088 20.8389C20.3216 19.8403 21.7941 19.2367 23.3682 19.0881V15.6862C20.8219 15.8554 18.5088 16.8672 16.6996 18.4506L19.088 20.8389ZM16.1562 26.1835C16.3499 24.538 16.9855 23.0825 18.0104 21.8902L15.6371 19.5169C14.0537 21.326 13.0419 23.6391 12.8727 26.1835H16.1562ZM17.8825 32.1073C16.852 30.8379 16.2427 29.3147 16.1186 27.688V27.6861H12.8727C13.0419 30.2305 14.0537 32.5436 15.6371 34.3527L17.8825 32.1073ZM23.3682 35.0673C21.7133 34.9131 20.1881 34.2662 18.9319 33.1868L16.6996 35.419C18.5088 37.0043 20.8219 38.0161 23.3682 38.1853V35.0673ZM29.3089 33.1868C28.0545 34.2643 26.5275 34.9113 24.8726 35.0655V38.1835C27.4189 38.0142 29.732 37.0025 31.5411 35.419L29.3089 33.1868ZM32.1222 27.6899C31.9981 29.3147 31.3888 30.8361 30.3582 32.1092L32.6037 34.3565C34.1871 32.5474 35.1988 30.2343 35.3681 27.6899H32.1222ZM30.2304 21.8883C31.2778 23.1031 31.9191 24.5813 32.0959 26.1816H35.3681C35.1988 23.6372 34.1871 21.3241 32.6037 19.515L30.2304 21.8883Z" fill="white"/>
<path d="M41.5402 37.2395C41.5402 37.578 41.7094 37.798 42.708 38.2117C43.5693 38.5615 44.5566 39.1332 44.5566 40.444C44.5566 41.4444 43.8796 42.2474 42.849 42.5107V43.4059C42.849 43.562 42.723 43.688 42.567 43.688H41.8862C41.7301 43.688 41.6041 43.562 41.6041 43.4059V42.5822C41.023 42.5276 40.4419 42.3377 40.0695 42.0707C39.968 41.9973 39.9247 41.8638 39.968 41.7453L40.2275 41.0213C40.2576 40.9404 40.3234 40.8765 40.4043 40.8483C40.487 40.822 40.5773 40.8351 40.6488 40.8821C41.0474 41.1492 41.559 41.2996 42.0498 41.2996C42.6497 41.2996 43.054 40.9893 43.054 40.5248C43.054 40.2127 42.928 39.8723 42.0065 39.498C40.991 39.1012 40.0489 38.5672 40.0489 37.3674C40.0489 36.3989 40.6826 35.6485 41.6812 35.4003V34.5371C41.6812 34.381 41.8072 34.255 41.9633 34.255H42.6328C42.7889 34.255 42.9149 34.381 42.9149 34.5371V35.3213C43.3869 35.3683 43.8025 35.4999 44.1786 35.7219C44.2971 35.7914 44.3479 35.9381 44.299 36.066L44.0282 36.7787C43.9981 36.8558 43.9379 36.916 43.8589 36.9442C43.7799 36.9743 43.6972 36.9649 43.6238 36.9217C43.3587 36.7675 42.9826 36.5926 42.4052 36.5926C41.7677 36.5926 41.5402 36.9273 41.5402 37.2395Z" fill="white"/>
<g filter="url(#filter0_d)">
<path d="M42.1032 31.073C41.9791 31.073 41.8625 31.105 41.7384 31.1106C42.0412 29.7886 42.2368 28.444 42.2368 27.0787C42.2368 17.0909 34.1127 8.96686 24.1268 8.96686C22.991 8.96686 21.9172 9.0985 20.8791 9.2922L21.4075 6.91704C21.4677 6.64248 21.3718 6.35851 21.1593 6.17797C20.9468 5.99744 20.6515 5.94854 20.3901 6.05762L12.6647 9.20382C12.4052 9.30913 12.2266 9.54984 12.2002 9.82817C12.172 10.1065 12.3037 10.3773 12.5369 10.5296L14.4626 11.7877C9.22894 15.1201 6 20.8521 6 27.0787C6 34.3283 10.2952 40.5774 16.4691 43.4697L12.6836 48.7748C12.5199 49.0043 12.4974 49.3051 12.6271 49.5571C12.755 49.8073 13.0145 49.9652 13.2947 49.9652H34.6016C34.8837 49.9652 35.1414 49.8073 35.2692 49.5571C35.399 49.3051 35.3764 49.0043 35.2128 48.7748L31.5344 43.6089C32.6515 43.1068 33.7159 42.4787 34.7276 41.7434C35.8541 44.7316 38.722 46.8754 42.0995 46.8754C46.4568 46.8754 50.0016 43.3287 50.0016 38.9733C50.0016 34.6179 46.4605 31.073 42.1032 31.073ZM19.6285 7.99273L18.5848 12.6829L14.5622 10.0557L19.6285 7.99273ZM33.1442 48.4589H14.7578L17.8946 44.0621C19.841 44.7786 21.936 45.1886 24.1287 45.1886C26.1973 45.1886 28.2039 44.8444 30.0995 44.1825L33.1442 48.4589ZM24.1287 43.6822C14.9628 43.6822 7.50446 36.2333 7.50446 27.0787C7.50446 21.1417 10.6977 15.6805 15.841 12.6885L18.6713 14.5371C18.7954 14.618 18.9383 14.6612 19.0831 14.6612C19.1791 14.6612 19.275 14.6424 19.3671 14.6048C19.5965 14.5108 19.7639 14.3115 19.8184 14.0707L20.5255 10.8907C21.6501 10.6274 22.8499 10.4732 24.1287 10.4732C33.2852 10.4732 40.7342 17.9222 40.7342 27.0787C40.7342 28.5248 40.5236 29.9559 40.155 31.3457C36.7436 32.2201 34.2048 35.2949 34.2048 38.9733C34.2048 39.3832 34.265 39.7763 34.3252 40.1693C31.3802 42.4617 27.8673 43.6822 24.1287 43.6822ZM42.1032 45.371C38.5772 45.371 35.7074 42.5031 35.7074 38.9752C35.7074 35.4491 38.5772 32.5812 42.1032 32.5812C45.6312 32.5812 48.5009 35.4491 48.5009 38.9752C48.5009 42.5012 45.6312 45.371 42.1032 45.371Z" fill="#D97EF4"/>
</g>
<defs>
<filter id="filter0_d" x="0" y="0" width="56.0016" height="55.9652" filterUnits="userSpaceOnUse" color-interpolation-filters="sRGB">
<feFlood flood-opacity="0" result="BackgroundImageFix"/>
<feColorMatrix in="SourceAlpha" type="matrix" values="0 0 0 0 0 0 0 0 0 0 0 0 0 0 0 0 0 0 127 0"/>
<feOffset/>
<feGaussianBlur stdDeviation="3"/>
<feColorMatrix type="matrix" values="0 0 0 0 0.85098 0 0 0 0 0.494118 0 0 0 0 0.956863 0 0 0 1 0"/>
<feBlend mode="normal" in2="BackgroundImageFix" result="effect1_dropShadow"/>
<feBlend mode="normal" in="SourceGraphic" in2="effect1_dropShadow" result="shape"/>
</filter>
</defs>
</svg>
