<svg width="406" height="191" viewBox="0 0 406 191" fill="none" xmlns="http://www.w3.org/2000/svg">
<mask id="mask0" mask-type="alpha" maskUnits="userSpaceOnUse" x="66" y="-5" width="216" height="162">
<path d="M219.783 156.603L281.905 60.5969V-5H66V156.603H219.783Z" fill="#141825"/>
</mask>
<g mask="url(#mask0)">
<path d="M101.749 57.6866H116.589C128.349 57.6866 134.229 51.9311 134.229 40.4202C134.229 35.9403 132.829 32.3004 130.029 29.5004C127.229 26.6382 123.278 25.2072 118.176 25.2072C114.007 25.2072 110.367 26.4205 107.256 28.8471C104.207 31.2737 102.683 34.2914 102.683 37.9003H71.23C71.23 30.7448 73.2211 24.3672 77.2032 18.7673C81.1854 13.1674 86.692 8.81189 93.7229 5.70083C100.816 2.52756 108.594 0.940918 117.056 0.940918C132.176 0.940918 144.06 4.39419 152.709 11.3007C161.357 18.2073 165.682 27.696 165.682 39.7669C165.682 45.6157 163.877 51.1534 160.268 56.3799C156.722 61.5443 151.526 65.7442 144.682 68.9797C151.9 71.593 157.562 75.5752 161.668 80.9262C165.775 86.215 167.828 92.7793 167.828 100.619C167.828 112.752 163.162 122.459 153.829 129.739C144.495 137.019 132.238 140.658 117.056 140.658C108.158 140.658 99.8828 138.978 92.2296 135.619C84.6387 132.196 78.8832 127.499 74.9633 121.525C71.0433 115.49 69.0834 108.646 69.0834 100.992H100.723C100.723 105.161 102.403 108.77 105.763 111.819C109.123 114.868 113.26 116.392 118.176 116.392C123.714 116.392 128.131 114.868 131.429 111.819C134.727 108.708 136.376 104.757 136.376 99.9658C136.376 93.1215 134.664 88.2683 131.242 85.4061C127.82 82.5439 123.091 81.1128 117.056 81.1128H101.749V57.6866Z" fill="url(#paint0_linear)"/>
<path d="M278.053 83.2595C278.053 101.615 273.915 115.77 265.64 125.725C257.427 135.681 245.822 140.658 230.827 140.658C215.707 140.658 204.01 135.65 195.734 125.632C187.459 115.614 183.321 101.49 183.321 83.2595V58.4332C183.321 40.078 187.428 25.9227 195.641 15.9673C203.917 6.01194 215.583 1.03425 230.641 1.03425C245.698 1.03425 257.364 6.04305 265.64 16.0607C273.915 26.0783 278.053 40.2336 278.053 58.5266V83.2595ZM246.6 54.42C246.6 44.6513 245.325 37.3714 242.774 32.5804C240.223 27.7271 236.178 25.3005 230.641 25.3005C225.227 25.3005 221.276 27.5404 218.787 32.0204C216.361 36.5003 215.054 43.2824 214.867 52.3667V87.0861C214.867 97.2281 216.143 104.664 218.694 109.392C221.245 114.059 225.29 116.392 230.827 116.392C236.178 116.392 240.129 114.121 242.68 109.579C245.231 104.975 246.538 97.7881 246.6 88.0194V54.42Z" fill="url(#paint1_linear)"/>
<path d="M334.442 114.229C334.442 110.877 333.615 108.247 331.961 106.338C330.306 104.429 327.4 102.626 323.243 100.929C319.085 99.2319 315.246 97.5138 311.725 95.7744C308.203 94.035 305.17 92.0199 302.625 89.729C300.079 87.4382 298.128 84.7867 296.77 81.7746C295.413 78.7626 294.734 75.1142 294.734 70.8294C294.734 63.6598 297.152 57.7629 301.988 53.1388C306.825 48.4722 313.273 45.7571 321.333 44.9935V31.5664H331.451V45.248C339.215 46.3935 345.303 49.5964 349.715 54.8569C354.169 60.075 356.396 66.7143 356.396 74.7748H334.888C334.888 70.3627 334.039 66.9688 332.342 64.5931C330.645 62.2174 328.227 61.0296 325.088 61.0296C322.288 61.0296 320.103 61.9204 318.534 63.7022C317.006 65.4416 316.243 67.8597 316.243 70.9567C316.243 74.096 317.134 76.599 318.915 78.4656C320.697 80.2898 323.561 82.0504 327.506 83.7473C331.451 85.4019 335.164 87.1412 338.642 88.9654C342.163 90.7472 345.197 92.7835 347.742 95.0744C350.288 97.3653 352.281 100.038 353.724 103.092C355.166 106.147 355.887 109.817 355.887 114.101C355.887 121.356 353.575 127.274 348.951 131.856C344.369 136.437 338.112 139.11 330.179 139.874V152.664H320.061V139.81C310.812 138.834 303.706 135.674 298.743 130.328C293.822 124.941 291.361 117.856 291.361 109.074H312.806C312.806 113.91 313.867 117.601 315.988 120.147C318.152 122.65 321.206 123.901 325.152 123.901C328.036 123.901 330.306 123.053 331.961 121.356C333.615 119.616 334.442 117.241 334.442 114.229Z" fill="url(#paint2_linear)"/>
</g>
<path d="M321.771 117.261C321.771 114.493 321.084 112.321 319.71 110.745C318.337 109.168 315.924 107.679 312.472 106.278C309.02 104.877 305.832 103.458 302.908 102.022C299.984 100.585 297.466 98.9212 295.352 97.0294C293.239 95.1377 291.618 92.9482 290.491 90.4609C289.364 87.9736 288.8 84.9608 288.8 81.4225C288.8 75.502 290.808 70.6325 294.824 66.814C298.84 62.9604 304.194 60.7183 310.886 60.0878V49H319.288V60.298C325.734 61.2438 330.789 63.8888 334.452 68.2328C338.151 72.5418 340 78.0243 340 84.6805H322.141C322.141 81.0371 321.436 78.2345 320.027 76.2727C318.618 74.3109 316.611 73.33 314.004 73.33C311.679 73.33 309.865 74.0657 308.562 75.537C307.294 76.9734 306.659 78.9702 306.659 81.5276C306.659 84.12 307.399 86.1869 308.879 87.7283C310.358 89.2347 312.736 90.6886 316.012 92.0899C319.288 93.4561 322.37 94.8925 325.258 96.3988C328.182 97.8702 330.701 99.5518 332.814 101.444C334.928 103.335 336.583 105.542 337.781 108.065C338.978 110.587 339.577 113.617 339.577 117.156C339.577 123.146 337.658 128.033 333.818 131.817C330.014 135.6 324.818 137.807 318.231 138.438V149H309.83V138.385C302.151 137.579 296.25 134.97 292.129 130.555C288.043 126.106 286 120.256 286 113.004H303.806C303.806 116.998 304.687 120.046 306.448 122.148C308.245 124.215 310.781 125.248 314.057 125.248C316.452 125.248 318.337 124.547 319.71 123.146C321.084 121.71 321.771 119.748 321.771 117.261Z" fill="#E5E5E5"/>
<path d="M283.444 57.2291L285.628 58.652L226.499 149.405L224.315 147.982L283.444 57.2291Z" fill="#0D7BD0"/>
<g filter="url(#filter0_d)">
<path fill-rule="evenodd" clip-rule="evenodd" d="M371.768 157.232L391.036 176.5H14V171.5H378.964L368.232 160.768L371.768 157.232Z" fill="#D97EF4"/>
</g>
<defs>
<filter id="filter0_d" x="0" y="143.232" width="405.036" height="47.2678" filterUnits="userSpaceOnUse" color-interpolation-filters="sRGB">
<feFlood flood-opacity="0" result="BackgroundImageFix"/>
<feColorMatrix in="SourceAlpha" type="matrix" values="0 0 0 0 0 0 0 0 0 0 0 0 0 0 0 0 0 0 127 0" result="hardAlpha"/>
<feOffset/>
<feGaussianBlur stdDeviation="7"/>
<feColorMatrix type="matrix" values="0 0 0 0 0.85098 0 0 0 0 0.494118 0 0 0 0 0.956863 0 0 0 1 0"/>
<feBlend mode="normal" in2="BackgroundImageFix" result="effect1_dropShadow"/>
<feBlend mode="normal" in="SourceGraphic" in2="effect1_dropShadow" result="shape"/>
</filter>
<linearGradient id="paint0_linear" x1="82.5079" y1="73.6293" x2="361.838" y2="73.6293" gradientUnits="userSpaceOnUse">
<stop stop-color="#00B0D6"/>
<stop offset="1" stop-color="#1357C2"/>
</linearGradient>
<linearGradient id="paint1_linear" x1="82.5079" y1="73.6293" x2="361.838" y2="73.6293" gradientUnits="userSpaceOnUse">
<stop stop-color="#00B0D6"/>
<stop offset="1" stop-color="#1357C2"/>
</linearGradient>
<linearGradient id="paint2_linear" x1="82.5079" y1="73.6293" x2="361.838" y2="73.6293" gradientUnits="userSpaceOnUse">
<stop stop-color="#00B0D6"/>
<stop offset="1" stop-color="#1357C2"/>
</linearGradient>
</defs>
</svg>
