<svg width="46" height="42" viewBox="0 0 46 42" fill="none" xmlns="http://www.w3.org/2000/svg">
<path d="M23.3457 19.1044C25.092 18.3784 26.7338 18.334 27.0129 19.0052C27.292 19.6765 26.1026 20.8092 24.3563 21.5352C22.61 22.2612 20.9681 22.3056 20.6891 21.6343C20.41 20.9631 21.5994 19.8304 23.3457 19.1044Z" fill="#D97EF4"/>
<path fill-rule="evenodd" clip-rule="evenodd" d="M45.2089 22.5135C45.4094 22.8888 45.2603 23.3464 44.885 23.5418L35.8566 28.2359V29.6395L44.1806 25.295C44.5559 25.0945 45.0084 25.2487 45.2089 25.6189C45.4094 25.9891 45.2603 26.4518 44.885 26.6421L16.0054 41.6757C15.8974 41.7374 15.774 41.7682 15.6558 41.7682C15.5427 41.7682 15.4296 41.7528 15.3216 41.6911L0.431934 34.4622C0.0514664 34.2771 -0.107919 33.8247 0.0771736 33.4442C0.262266 33.0637 0.719856 32.9146 1.09518 33.0894L15.6455 40.1487L25.6148 34.9558V33.5625L16.0054 38.5651C15.8974 38.6268 15.774 38.6576 15.6558 38.6576C15.5427 38.6576 15.4296 38.6268 15.3216 38.5754L0.431934 31.3465C0.0514664 31.1665 -0.102777 30.7038 0.0771736 30.3336C0.262266 29.9532 0.719856 29.7886 1.09518 29.9789L15.6455 37.0381L25.6148 31.8452V30.3491L16.0054 35.362C15.8974 35.4134 15.774 35.4442 15.6558 35.4442C15.5427 35.4442 15.4296 35.4237 15.3216 35.3722L0.431934 28.1331C0.0514664 27.9531 -0.102777 27.5007 0.0771736 27.1202C0.262266 26.75 0.719855 26.5855 1.09004 26.7706L15.6404 33.8401L25.6096 28.6472V27.2282L16.0003 32.2308C15.8923 32.2925 15.7689 32.3234 15.6506 32.3234C15.5375 32.3234 15.4244 32.2925 15.3164 32.2411L0.426792 25.0122C0.16972 24.8785 5.18666e-05 24.6215 5.18666e-05 24.3284C5.18666e-05 24.0353 0.164578 23.768 0.426792 23.6446L30.2164 9.084C30.4272 8.98631 30.674 8.98117 30.8796 9.084L44.8644 15.8347C45.1266 15.9633 45.2911 16.2255 45.2963 16.5134C45.3014 16.8013 45.1472 17.0687 44.885 17.1972L35.8566 21.9016V23.3155L44.1806 18.9813C44.561 18.7859 45.0186 18.9299 45.2089 19.3001C45.4094 19.6754 45.2603 20.133 44.885 20.3284L35.8566 25.0328V26.5289L44.1806 22.1896C44.5559 21.9942 45.0135 22.1433 45.2089 22.5135ZM42.8387 16.5494L30.5506 10.611L22.6019 14.4979L35.0339 20.6111L42.8387 16.5494ZM2.50394 24.3181L15.6455 30.7038L24.6893 25.9942L11.9282 19.7165L2.50394 24.3181ZM32.021 23.8965L27.1418 26.4364V34.1692L34.3295 30.421V21.9633L20.8744 15.3411L13.6609 18.8682L26.3706 25.1202L31.3218 22.5495C31.692 22.3541 32.1496 22.4981 32.3449 22.8734C32.5352 23.2487 32.3912 23.7063 32.021 23.8965Z" fill="#D97EF4"/>
<path d="M13.6095 11.0066C19.7536 11.0066 24.3912 8.81636 24.3912 5.91658C24.3912 3.0168 19.7587 0.826538 13.6095 0.826538C7.46549 0.826538 2.83304 3.0168 2.83304 5.91658C2.83304 8.81636 7.46549 11.0066 13.6095 11.0066ZM13.6095 2.34327C19.0646 2.34327 22.8641 4.22504 22.8641 5.91144C22.8641 7.59783 19.0646 9.4796 13.6095 9.4796C8.15445 9.4796 4.35491 7.59783 4.35491 5.91144C4.35491 4.22504 8.15959 2.34327 13.6095 2.34327Z" fill="white"/>
<path d="M24.2059 10.3433C24.3807 9.95769 24.2059 9.50524 23.8254 9.33557C23.4398 9.1659 22.9925 9.33557 22.8177 9.72118C22.2933 10.8883 18.6274 12.1479 13.6145 12.1479C8.60673 12.1479 4.93573 10.8883 4.40616 9.72118C4.23135 9.33557 3.7789 9.1659 3.39843 9.34071C3.01283 9.51038 2.84316 9.96283 3.01797 10.3433C4.0514 12.6261 9.23399 13.6698 13.6145 13.6698C17.995 13.6698 23.1828 12.6261 24.2059 10.3433Z" fill="white"/>
<path d="M14.3754 15.7884C14.3754 15.3668 14.0361 15.0274 13.6145 15.0274C8.60673 15.0274 4.93573 13.7678 4.40616 12.5955C4.23135 12.215 3.7789 12.0402 3.39843 12.215C3.01283 12.3899 2.84316 12.8372 3.01797 13.2228C4.0514 15.5056 9.23399 16.5493 13.6145 16.5493C14.031 16.5493 14.3754 16.21 14.3754 15.7884Z" fill="white"/>
<path d="M8.8793 18.7036C9.24949 18.7036 9.5734 18.4362 9.62995 18.0557C9.69165 17.6393 9.40887 17.2485 8.99241 17.1868C5.79443 16.7087 4.5759 15.9015 4.38053 15.5416C4.17487 15.1714 3.71728 15.0377 3.3471 15.2382C2.97691 15.4387 2.83809 15.9066 3.04375 16.2717C3.81497 17.6804 6.58107 18.3642 8.76619 18.6933C8.80218 18.6984 8.83817 18.7036 8.8793 18.7036Z" fill="white"/>
<path d="M4.33415 18.2922C4.09764 17.9425 3.62463 17.8603 3.27501 18.0968C2.93053 18.3333 2.84313 18.8115 3.08478 19.1559C3.50124 19.7626 4.47297 20.2459 6.0514 20.6264C6.11309 20.6418 6.16965 20.6469 6.23135 20.6469C6.57068 20.6469 6.88431 20.4156 6.97172 20.066C7.07455 19.6598 6.82261 19.2485 6.4113 19.1456C4.65292 18.7189 4.34957 18.3076 4.33415 18.2922Z" fill="white"/>
</svg>
